Coordinates
version=1
nRows=10
nColumns=34
inDegrees=yes

Units are S.I. units (second, meters, Newtons, ...)
If the header above contains a line with 'inDegrees', this indicates whether rotational values are in degrees (yes) or radians (no).

endheader
time	pelvis_tilt	pelvis_list	pelvis_rotation	pelvis_tx	pelvis_ty	pelvis_tz	hip_flexion_r	hip_adduction_r	hip_rotation_r	knee_angle_r	ankle_angle_r	subtalar_angle_r	mtp_angle_r	hip_flexion_l	hip_adduction_l	hip_rotation_l	knee_angle_l	ankle_angle_l	subtalar_angle_l	mtp_angle_l	lumbar_extension	lumbar_bending	lumbar_rotation	arm_flex_r	arm_add_r	arm_rot_r	elbow_flex_r	pro_sup_r	arm_flex_l	arm_add_l	arm_rot_l	elbow_flex_l	pro_sup_l
      7.95000000	     18.28579494	      9.19225456	      4.47968810	     -0.33686239	      0.53004607	      0.13874964	     72.99962395	      3.80004973	      1.82086917	     33.58587433	    -15.61912216	    -16.10755543	      0.00000000	     70.87530217	     -3.34928076	    -10.34753484	    133.79094810	     29.38104883	    -16.45623953	      0.00000000	    -51.93100365	      3.03633551	      2.22164235	     21.89367420	    -51.33177853	     12.67036228	     81.46536504	     92.65267977	    104.17918354	     -4.12506492	     44.65290830	     50.31030444	     74.03604423
      7.96666670	     17.41460284	      9.79247858	      4.86624240	     -0.33359416	      0.52873869	      0.13906636	     74.87063158	      3.47625460	      2.82566496	     35.46768127	    -16.13246232	    -17.68989119	      0.00000000	     71.12389377	     -2.93184180	    -10.87140788	    134.51929638	     29.96155453	    -16.56878525	      0.00000000	    -50.82449843	      2.31232533	      3.81600790	     23.29073465	    -52.91176571	     11.53112032	     82.59129126	     92.18881075	    106.48685634	     -2.94341162	     45.08444425	     56.18020466	     73.65611358
      7.98333330	     15.76718604	     10.37940171	      5.23332692	     -0.31402915	      0.52688789	      0.13212966	     77.72834183	      2.76941036	      3.49837094	     38.32138540	    -14.88170454	    -18.77517124	      0.00000000	     72.07529982	     -2.54323805	    -11.52394827	    135.02634460	     30.81962333	    -16.52760821	      0.00000000	    -48.22602101	      1.76133429	      5.92947477	     23.36234235	    -54.20481068	     10.22544093	     82.00239621	     91.77259023	    106.54392991	     -1.99593778	     44.01410435	     64.61337585	     73.48308256
      8.00000000	     14.57097240	     11.04670486	      5.38537484	     -0.31243009	      0.51380822	      0.12956514	     80.79889730	      2.25844188	      3.86839702	     40.59895572	    -14.22141480	    -19.49205040	      0.00000000	     73.50744730	     -1.99918067	    -12.98244209	    136.25524289	     31.84906850	    -17.39957363	      0.00000000	    -46.44017929	      0.81176183	      7.78696950	     25.38459483	    -56.28540195	     10.04519213	     81.32436312	     91.63346281	    109.49090975	     -0.08096962	     44.43211703	     66.30818784	     73.65756050
      8.01666670	     14.08672447	     11.64845271	      5.36224597	     -0.31464412	      0.51125916	      0.13032322	     82.13820811	      2.15374628	      4.53246886	     41.68775827	    -14.19964678	    -19.70738973	      0.00000000	     74.06123469	     -1.90254965	    -14.08244264	    136.36922766	     31.86939345	    -17.83567879	      0.00000000	    -46.06834304	     -0.21554086	      8.33181026	     32.68654626	    -57.11590886	     14.20378302	     79.09050787	     90.10161228	    114.70956035	      0.81807957	     47.24020999	     65.60243768	     74.79827013
      8.03333330	     12.65338007	     11.86186062	      5.93389507	     -0.29754828	      0.51046585	      0.13073148	     84.43147359	      1.83713771	      4.37506774	     43.55075011	    -12.99428023	    -18.98941666	      0.00000000	     74.57921983	     -1.69441829	    -13.44649361	    136.79557192	     33.15781814	    -16.54777780	      0.00000000	    -44.51864067	     -0.57502291	      9.67424554	     36.88653112	    -58.11016879	     16.16624386	     77.48206074	     89.61427281	    117.68505372	      2.45579159	     47.10648678	     64.60615337	     75.45643693
      8.05000000	     10.68726308	     12.07526612	      7.01600354	     -0.28026692	      0.51353771	      0.12487820	     87.71299414	      0.87407511	      4.53406806	     47.11790626	    -11.57777868	    -18.94978365	      0.00000000	     74.69945459	     -0.77995306	    -13.53137032	    137.00957730	     33.91115387	    -16.30746637	      0.00000000	    -41.97976156	     -0.35159468	     10.61946817	     39.46241698	    -58.15424193	     17.67872958	     75.53326857	     89.13792353	    118.71333274	      3.05060264	     46.83125650	     66.19394275	     76.49797557
      8.06666670	      9.09278135	     12.34161473	      7.86424469	     -0.27131559	      0.50958264	      0.12456079	     90.79490145	      0.43895328	      4.98072333	     50.71368261	     -9.63358385	    -18.64934904	      0.00000000	     74.84335469	     -0.20096166	    -13.56537604	    137.41768432	     36.31137772	    -14.58923794	      0.00000000	    -40.31018204	     -0.74555058	     11.85350348	     41.05673532	    -58.69511447	     17.93642856	     74.96738120	     88.93657612	    120.66500943	      4.08323742	     46.69078530	     66.65574522	     76.92068639
      8.08333330	      9.61380789	     12.28780349	      8.12305689	     -0.28558499	      0.50776301	      0.12550822	     90.72668170	      0.01987845	      4.75195926	     51.25774479	     -9.43379146	    -18.82511445	      0.00000000	     75.04648885	     -0.03207124	    -14.00982853	    137.45940318	     36.60741335	    -13.95515241	      0.00000000	    -41.50418104	     -0.62057823	     11.17366310	     51.98963489	    -57.15124400	     26.71742965	     71.19012319	     86.33365908	    125.52163453	      3.42690097	     49.08546709	     65.00286370	     79.54565172
      8.10000000	      9.89952517	     12.10477736	      8.33637798	     -0.29010949	      0.51456182	      0.13217380	     89.43331739	     -0.05510862	      4.39249397	     49.44926148	    -10.59493044	    -18.53228188	      0.00000000	     74.23876865	     -0.57981358	    -13.21921253	    136.65612748	     37.45925915	    -12.03114643	      0.00000000	    -43.31535150	     -0.41736033	     12.13602766	     60.07794897	    -57.00569148	     31.87750177	     68.58036349	     85.35891946	    129.93475594	      3.87131210	     50.21767996	     62.49721345	     79.57159893
